<svg xmlns="http://www.w3.org/2000/svg" viewBox="-24 18.439999999999998 406.4 209.84" width="406.4" height="209.84" style="display: block; max-width: 100%; height: auto; overflow: visible;">
      <defs>
        
        
      <linearGradient id="grad-fill" x1="0%" y1="0%" x2="100%" y2="0%">
        <stop offset="0%" stop-color="#facc15" />
        <stop offset="100%" stop-color="#d946ef" />
      </linearGradient>
    
      <filter id="glow" x="-50%" y="-50%" width="200%" height="200%">
        <feGaussianBlur stdDeviation="3.5" result="coloredBlur"/>
        <feMerge>
          <feMergeNode in="coloredBlur"/>
          <feMergeNode in="SourceGraphic"/>
        </feMerge>
      </filter>
    
      <filter id="shadow" x="-50%" y="-50%" width="200%" height="200%">
        <feDropShadow dx="4" dy="4" stdDeviation="3" flood-opacity="0.6"/>
      </filter>
    
        <style>
          
        </style>
      </defs>
      
      
      <g transform="translate(0, 0)">
      
      <path
        d="M55.84 165.72L55.84 165.72Q44.20 165.72 35.20 161.22Q26.20 156.72 21.10 148.86Q16 141 16 131.04L16 131.04Q16 124.80 18.16 118.20L18.16 118.20Q19.36 114.72 21.64 112.08Q23.92 109.44 26.44 107.76Q28.96 106.08 30.76 105.60L30.76 105.60Q32.08 105.24 32.44 105.24L32.44 105.24Q33.28 105.24 31.90 106.38Q30.52 107.52 28.48 108.84L28.48 108.84Q26.20 110.40 23.20 113.52Q20.20 116.64 19.12 122.76L19.12 122.76Q18.88 124.20 18.76 125.64Q18.64 127.08 18.64 128.40L18.64 128.40Q18.64 136.20 22.18 142.14Q25.72 148.08 31.36 152.04Q37 156 43.66 158.04Q50.32 160.08 56.44 160.08L56.44 160.08Q66.16 160.08 74.44 156.30Q82.72 152.52 89.62 145.92Q96.52 139.32 102.04 130.74Q107.56 122.16 111.76 112.56L111.76 112.56Q110.80 112.56 109 112.50Q107.20 112.44 105.04 112.44L105.04 112.44Q101.80 112.44 98.02 112.86Q94.24 113.28 90.94 114.66Q87.64 116.04 85.60 118.92L85.60 118.92Q84.88 119.76 84.28 119.76L84.28 119.76Q83.80 119.76 83.56 119.16Q83.32 118.56 83.68 117.84L83.68 117.84Q86.56 111.48 91.60 109.20Q96.64 106.92 102.88 106.92L102.88 106.92Q105.52 106.92 108.22 107.22Q110.92 107.52 113.56 108L113.56 108Q115.72 102.84 118.36 97.68Q121 92.52 123.52 88.08Q126.04 83.64 128.08 80.58Q130.12 77.52 130.96 76.56L130.96 76.56Q123.28 72.72 115.12 69.48Q106.96 66.24 98.08 65.04L98.08 65.04Q96.28 64.80 94.48 64.68Q92.68 64.56 91 64.56L91 64.56Q83.08 64.56 76.84 67.08Q70.60 69.60 66.28 73.50Q61.96 77.40 59.68 81.78Q57.40 86.16 57.40 90L57.40 90Q57.40 95.04 61 97.20L61 97.20Q63.16 98.52 65.38 99.12Q67.60 99.72 69.64 99.72L69.64 99.72Q74.20 99.72 77.92 97.80Q81.64 95.88 83.86 93.54Q86.08 91.20 86.08 90L86.08 90Q86.08 88.80 86.80 87.90Q87.52 87 88 87L88 87Q88.48 87 88.48 87.84L88.48 87.84Q88.48 88.44 88.12 89.52L88.12 89.52Q86.32 95.76 80.86 99.06Q75.40 102.36 69.40 102.36L69.40 102.36Q66.88 102.36 64.42 101.76Q61.96 101.16 59.80 99.96L59.80 99.96Q55.84 97.68 53.92 94.14Q52 90.60 52 86.52L52 86.52Q52 81.84 54.40 76.86Q56.80 71.88 61.30 67.74Q65.80 63.60 72.16 61.02Q78.52 58.44 86.56 58.44L86.56 58.44Q92.68 58.44 100.24 60.48L100.24 60.48Q110.20 63.12 118.60 67.02Q127 70.92 132.52 74.40L132.52 74.40Q133.36 73.44 135.28 71.88Q137.20 70.32 140.20 70.32L140.20 70.32Q141.28 70.32 142.72 70.68L142.72 70.68Q143.80 71.04 144.34 71.88Q144.88 72.72 144.88 73.56L144.88 73.56Q144.88 74.64 144.16 74.64L144.16 74.64Q143.68 74.64 142.72 73.56L142.72 73.56Q141.88 73.20 140.92 73.20L140.92 73.20Q139.36 73.20 137.92 74.04Q136.48 74.88 135.40 75.84L135.40 75.84Q137.56 76.92 141.10 78.36Q144.64 79.80 148.96 81.24Q153.28 82.68 157.66 83.58Q162.04 84.48 165.76 84.48L165.76 84.48Q168.88 84.48 171.40 83.64Q173.92 82.80 175 80.52L175 80.52Q175.96 78.24 176.80 78.24L176.80 78.24Q177.40 78.24 177.40 79.56L177.40 79.56Q177.40 79.92 177.40 80.28Q177.40 80.64 177.28 81L177.28 81Q176.80 84.24 173.32 86.46Q169.84 88.68 164.92 88.68L164.92 88.68Q164.20 88.68 163.42 88.62Q162.64 88.56 161.80 88.44L161.80 88.44Q154.84 87.24 148.84 84.96Q142.84 82.68 138.82 80.64Q134.80 78.60 133.60 78.12L133.60 78.12Q129.76 82.44 126.76 88.20Q123.76 93.96 121.54 99.60Q119.32 105.24 117.52 109.20L117.52 109.20Q121.24 109.68 125.62 109.86Q130 110.04 133.84 110.04L133.84 110.04Q135.76 110.04 137.38 109.98Q139 109.92 140.20 109.92L140.20 109.92L140.92 109.92Q143.32 109.92 143.32 110.76L143.32 110.76Q143.32 111.60 140.56 112.32L140.56 112.32Q138.76 112.80 134.50 113.04Q130.24 113.28 125.68 113.28L125.68 113.28Q122.92 113.28 120.40 113.16Q117.88 113.04 116.08 112.80L116.08 112.80Q113.56 119.64 110.32 126.96Q107.08 134.28 102.46 141.18Q97.84 148.08 91.42 153.66Q85 159.24 76.24 162.48Q67.48 165.72 55.84 165.72Z"
        fill="url(#grad-fill)"
        stroke="#facc15"
        stroke-width="2"
        stroke-linecap="round"
        stroke-linejoin="round"
        filter="url(#shadow)"
        
        class="sig-path"
        stroke-dasharray="938"
        stroke-dashoffset="938"
        fill-opacity="0"
      >
        <animate
          attributeName="stroke-dashoffset"
          from="938"
          to="0"
          dur="1s"
          begin="0s"
          fill="freeze"
        />
      
        <animate
          attributeName="fill-opacity"
          from="0"
          to="1"
          dur="0.3s"
          begin="0.6s"
          fill="freeze"
        />
      </path>
    
      <path
        d="M149.08 150.36L149.08 150.36Q144.04 150.36 142.24 147.66Q140.44 144.96 140.44 141.24L140.44 141.24Q140.44 137.40 141.52 133.32Q142.60 129.24 143.44 126.48L143.44 126.48Q145.36 119.76 148.30 112.14Q151.24 104.52 154.78 97.14Q158.32 89.76 161.80 83.88L161.80 83.88Q164.56 79.20 167.74 76.86Q170.92 74.52 173.32 74.52L173.32 74.52Q175.24 74.52 176.38 75.90Q177.52 77.28 177.52 80.04L177.52 80.04Q177.52 81.96 176.86 84.60Q176.20 87.24 174.64 90.60L174.64 90.60Q170.44 99.96 164.62 109.32Q158.80 118.68 149.92 126.84L149.92 126.84Q149.44 128.40 148.66 130.50Q147.88 132.60 147.28 134.76L147.28 134.76Q146.56 138 146.56 140.28L146.56 140.28Q146.56 144 148.06 145.86Q149.56 147.72 151.72 147.72L151.72 147.72Q153.64 147.72 155.80 146.34Q157.96 144.96 159.88 142.32L159.88 142.32Q162.76 138.12 165.10 133.74Q167.44 129.36 168.64 126.96L168.64 126.96Q169.36 125.64 170.20 125.64L170.20 125.64Q170.80 125.64 170.80 126.36L170.80 126.36Q170.80 126.96 170.44 127.68L170.44 127.68Q169.36 130.08 167.62 133.86Q165.88 137.64 163.30 141.42Q160.72 145.20 157.18 147.78Q153.64 150.36 149.08 150.36ZM150.88 123L150.88 123Q155.20 118.56 159.28 112.74Q163.36 106.92 166.90 100.62Q170.44 94.32 172.84 88.68L172.84 88.68Q173.68 86.88 174.22 84.72Q174.76 82.56 174.76 81.12L174.76 81.12Q174.76 79.44 173.92 79.44L173.92 79.44Q173.44 79.44 172.48 80.34Q171.52 81.24 169.96 83.40L169.96 83.40Q167.68 86.40 164.98 91.56Q162.28 96.72 159.52 102.60Q156.76 108.48 154.48 113.94Q152.20 119.40 150.88 123Z"
        fill="url(#grad-fill)"
        stroke="#facc15"
        stroke-width="2"
        stroke-linecap="round"
        stroke-linejoin="round"
        filter="url(#shadow)"
        
        class="sig-path"
        stroke-dasharray="345"
        stroke-dashoffset="345"
        fill-opacity="0"
      >
        <animate
          attributeName="stroke-dashoffset"
          from="345"
          to="0"
          dur="1s"
          begin="1s"
          fill="freeze"
        />
      
        <animate
          attributeName="fill-opacity"
          from="0"
          to="1"
          dur="0.3s"
          begin="1.6s"
          fill="freeze"
        />
      </path>
    
      <path
        d="M174.40 150L174.40 150Q169.84 150 167.68 146.94Q165.52 143.88 165.52 139.44L165.52 139.44Q165.52 134.04 168.04 128.16L168.04 128.16Q170.44 122.64 174.16 118.08Q177.88 113.52 182.20 110.70Q186.52 107.88 190.60 107.88L190.60 107.88Q195.16 107.88 197.32 110.88Q199.48 113.88 199.48 118.44L199.48 118.44Q199.48 123.96 196.96 129.72L196.96 129.72Q195.52 132.96 192.88 136.86Q190.24 140.76 186.88 144L186.88 144Q187.60 145.32 188.92 146.22Q190.24 147.12 192.52 147.12L192.52 147.12Q195.40 147.12 197.98 144.72Q200.56 142.32 202.72 138.90Q204.88 135.48 206.56 132Q208.24 128.52 209.32 126.36L209.32 126.36Q209.68 125.64 210.52 125.64L210.52 125.64Q211 125.64 211.24 126.06Q211.48 126.48 211.12 127.32L211.12 127.32Q210.40 129.12 208.72 132.66Q207.04 136.20 204.64 139.98Q202.24 143.76 199.12 146.40Q196 149.04 192.16 149.04L192.16 149.04Q189.52 149.04 187.60 148.14Q185.68 147.24 184.48 145.92L184.48 145.92Q181.96 147.84 179.44 148.92Q176.92 150 174.40 150ZM176.20 147.36L176.20 147.36Q179.44 147.36 183.16 144.24L183.16 144.24Q182.20 142.80 181.72 141.24Q181.24 139.68 181.24 138.36L181.24 138.36Q181.24 136.20 182.26 134.64Q183.28 133.08 185.44 133.08L185.44 133.08Q187 133.08 188.02 134.22Q189.04 135.36 189.04 136.80L189.04 136.80Q189.04 137.16 188.98 137.46Q188.92 137.76 188.80 138.12L188.80 138.12Q190.84 135.36 192.64 131.64L192.64 131.64Q196.60 123.12 196.60 117.60L196.60 117.60Q196.60 114.84 195.52 113.28Q194.44 111.72 192.28 111.72L192.28 111.72Q189.76 111.72 186.82 113.88Q183.88 116.04 181.18 119.64Q178.48 123.24 176.44 127.68L176.44 127.68Q174.52 131.76 173.38 135.54Q172.24 139.32 172.24 142.08L172.24 142.08Q172.24 144.48 173.20 145.92Q174.16 147.36 176.20 147.36Z"
        fill="url(#grad-fill)"
        stroke="#facc15"
        stroke-width="2"
        stroke-linecap="round"
        stroke-linejoin="round"
        filter="url(#shadow)"
        
        class="sig-path"
        stroke-dasharray="298"
        stroke-dashoffset="298"
        fill-opacity="0"
      >
        <animate
          attributeName="stroke-dashoffset"
          from="298"
          to="0"
          dur="1s"
          begin="2s"
          fill="freeze"
        />
      
        <animate
          attributeName="fill-opacity"
          from="0"
          to="1"
          dur="0.3s"
          begin="2.6s"
          fill="freeze"
        />
      </path>
    
      <path
        d="M217.48 150.12L217.48 150.12Q212.32 150.12 209.80 147.48Q207.28 144.84 207.28 140.88L207.28 140.88Q207.28 138.96 207.76 137.16L207.76 137.16Q208.48 134.40 209.86 130.98Q211.24 127.56 213.04 123.96L213.04 123.96Q208.84 132.12 205.42 137.70Q202 143.28 200.20 144.96L200.20 144.96Q199.84 145.32 199.48 145.32L199.48 145.32Q198.88 145.32 198.88 144.72L198.88 144.72Q198.88 144.24 199.24 143.76L199.24 143.76Q201.76 140.40 205.06 134.52Q208.36 128.64 212.08 121.38Q215.80 114.12 219.64 106.68Q223.48 99.24 227.14 92.64Q230.80 86.04 233.80 81.48L233.80 81.48Q235.96 78.24 237.88 76.86Q239.80 75.48 241.84 75.48L241.84 75.48L242.44 75.48Q243.52 75.48 244.90 75.84Q246.28 76.20 247.48 75.96L247.48 75.96Q245.92 77.64 242.74 81.90Q239.56 86.16 235.66 91.86Q231.76 97.56 227.86 103.86Q223.96 110.16 220.96 116.16L220.96 116.16Q218.08 121.92 215.86 128.46Q213.64 135 213.64 139.92L213.64 139.92Q213.64 142.80 214.60 144.72Q215.56 146.64 217.84 147.12L217.84 147.12Q221.68 147.96 228.16 140.28L228.16 140.28Q230.68 137.28 233.20 133.14Q235.72 129 237.16 125.40L237.16 125.40Q239.20 120.60 239.20 116.64L239.20 116.64Q239.20 113.64 237.70 111.84Q236.20 110.04 232.72 110.40L232.72 110.40L232.24 110.40Q230.08 110.40 230.08 109.20L230.08 109.20Q230.08 108.72 230.74 108.24Q231.40 107.76 232.60 107.76L232.60 107.76Q232.96 107.76 233.38 107.82Q233.80 107.88 234.28 108L234.28 108Q239.68 108.84 242.02 112.38Q244.36 115.92 244.36 120.48L244.36 120.48Q244.36 121.44 244.24 122.58Q244.12 123.72 243.88 125.04L243.88 125.04Q242.92 129.96 240.16 135.06Q237.40 140.16 233.38 144Q229.36 147.84 224.44 149.16L224.44 149.16Q222.40 149.64 220.66 149.88Q218.92 150.12 217.48 150.12Z"
        fill="url(#grad-fill)"
        stroke="#facc15"
        stroke-width="2"
        stroke-linecap="round"
        stroke-linejoin="round"
        filter="url(#shadow)"
        
        class="sig-path"
        stroke-dasharray="351"
        stroke-dashoffset="351"
        fill-opacity="0"
      >
        <animate
          attributeName="stroke-dashoffset"
          from="351"
          to="0"
          dur="1s"
          begin="3s"
          fill="freeze"
        />
      
        <animate
          attributeName="fill-opacity"
          from="0"
          to="1"
          dur="0.3s"
          begin="3.6s"
          fill="freeze"
        />
      </path>
    
      <path
        d="M259.12 150.12L259.12 150.12Q253.96 150.12 251.44 147.48Q248.92 144.84 248.92 140.88L248.92 140.88Q248.92 138.96 249.40 137.16L249.40 137.16Q250.12 134.40 251.50 130.98Q252.88 127.56 254.68 123.96L254.68 123.96Q250.48 132.12 247.06 137.70Q243.64 143.28 241.84 144.96L241.84 144.96Q241.48 145.32 241.12 145.32L241.12 145.32Q240.52 145.32 240.52 144.72L240.52 144.72Q240.52 144.24 240.88 143.76L240.88 143.76Q243.40 140.40 246.70 134.52Q250 128.64 253.72 121.38Q257.44 114.12 261.28 106.68Q265.12 99.24 268.78 92.64Q272.44 86.04 275.44 81.48L275.44 81.48Q277.60 78.24 279.52 76.86Q281.44 75.48 283.48 75.48L283.48 75.48L284.08 75.48Q285.16 75.48 286.54 75.84Q287.92 76.20 289.12 75.96L289.12 75.96Q287.56 77.64 284.38 81.90Q281.20 86.16 277.30 91.86Q273.40 97.56 269.50 103.86Q265.60 110.16 262.60 116.16L262.60 116.16Q259.72 121.92 257.50 128.46Q255.28 135 255.28 139.92L255.28 139.92Q255.28 142.80 256.24 144.72Q257.20 146.64 259.48 147.12L259.48 147.12Q263.32 147.96 269.80 140.28L269.80 140.28Q272.32 137.28 274.84 133.14Q277.36 129 278.80 125.40L278.80 125.40Q280.84 120.60 280.84 116.64L280.84 116.64Q280.84 113.64 279.34 111.84Q277.84 110.04 274.36 110.40L274.36 110.40L273.88 110.40Q271.72 110.40 271.72 109.20L271.72 109.20Q271.72 108.72 272.38 108.24Q273.04 107.76 274.24 107.76L274.24 107.76Q274.60 107.76 275.02 107.82Q275.44 107.88 275.92 108L275.92 108Q281.32 108.84 283.66 112.38Q286 115.92 286 120.48L286 120.48Q286 121.44 285.88 122.58Q285.76 123.72 285.52 125.04L285.52 125.04Q284.56 129.96 281.80 135.06Q279.04 140.16 275.02 144Q271 147.84 266.08 149.16L266.08 149.16Q264.04 149.64 262.30 149.88Q260.56 150.12 259.12 150.12Z"
        fill="url(#grad-fill)"
        stroke="#facc15"
        stroke-width="2"
        stroke-linecap="round"
        stroke-linejoin="round"
        filter="url(#shadow)"
        
        class="sig-path"
        stroke-dasharray="351"
        stroke-dashoffset="351"
        fill-opacity="0"
      >
        <animate
          attributeName="stroke-dashoffset"
          from="351"
          to="0"
          dur="1s"
          begin="4s"
          fill="freeze"
        />
      
        <animate
          attributeName="fill-opacity"
          from="0"
          to="1"
          dur="0.3s"
          begin="4.6s"
          fill="freeze"
        />
      </path>
    
      <path
        d="M275.92 188.28L275.92 188.28Q269.68 188.28 267.04 185.82Q264.40 183.36 264.40 180L264.40 180Q264.40 178.20 264.88 176.88Q265.36 175.56 266.32 173.52L266.32 173.52Q268 170.04 271 167.52Q274 165 277.48 163.44L277.48 163.44Q283.72 160.56 291.70 158.76Q299.68 156.96 307 154.80L307 154.80Q309.28 150.84 311.20 145.74Q313.12 140.64 314.68 135.78Q316.24 130.92 317.20 127.80L317.20 127.80Q315.76 130.44 313.54 134.22Q311.32 138 308.56 141.60Q305.80 145.20 302.62 147.60Q299.44 150 295.96 150L295.96 150Q294.64 150 292.78 149.40Q290.92 148.80 289.54 147.18Q288.16 145.56 288.16 142.32L288.16 142.32Q288.16 139.20 289.66 136.26Q291.16 133.32 292.48 130.56L292.48 130.56Q292.12 130.56 291.70 130.32Q291.28 130.08 291.28 129.60L291.28 129.60Q291.28 129.12 291.52 128.64L291.52 128.64Q292 127.68 292.60 126.60Q293.20 125.52 293.68 124.32L293.68 124.32Q295.48 120.60 297.28 117.18Q299.08 113.76 300.40 111.12L300.40 111.12Q301.72 108.48 304.96 108.48L304.96 108.48L312.40 108.48Q311.56 109.20 310.30 110.10Q309.04 111 307.96 112.80L307.96 112.80Q304.72 118.32 302.32 123.42Q299.92 128.52 297.16 134.28L297.16 134.28Q295.84 137.04 295.24 139.32Q294.64 141.60 294.64 143.28L294.64 143.28Q294.64 147.24 297.28 147.24L297.28 147.24Q300.16 147.24 304.24 142.56L304.24 142.56Q307.60 138.60 311.02 133.14Q314.44 127.68 317.62 121.86Q320.80 116.04 323.20 111.12L323.20 111.12Q324.52 108.48 327.88 108.48L327.88 108.48L334.48 108.48Q331 110.88 329.14 114.72Q327.28 118.56 325 124.56L325 124.56Q322.48 131.16 320.26 138.18Q318.04 145.20 315.28 152.28L315.28 152.28Q319.24 150.96 324.22 148.20Q329.20 145.44 332.68 140.28L332.68 140.28Q335.44 136.20 337.42 132.42Q339.40 128.64 340.24 126.96L340.24 126.96Q340.72 125.76 341.56 125.76L341.56 125.76Q342.40 125.76 342.40 126.84L342.40 126.84Q342.40 127.44 342.04 128.16L342.04 128.16Q338.92 134.40 336.46 138.66Q334 142.92 331.06 145.98Q328.12 149.04 323.92 151.38Q319.72 153.72 313.24 156.12L313.24 156.12Q310.36 161.28 306.70 166.86Q303.04 172.44 298.42 177.30Q293.80 182.16 288.22 185.22Q282.64 188.28 275.92 188.28ZM273.04 185.88L273.04 185.88Q277 185.88 281.20 183.48Q285.40 181.08 289.36 177.42Q293.32 173.76 296.62 169.98Q299.92 166.20 301.96 163.32L301.96 163.32Q302.56 162.48 303.28 161.16Q304 159.84 304.72 158.64L304.72 158.64Q298.84 160.20 291.82 162.06Q284.80 163.92 279.64 166.20L279.64 166.20Q273.88 168.60 270.58 173.04Q267.28 177.48 267.28 180.96L267.28 180.96Q267.28 183.12 268.66 184.50Q270.04 185.88 273.04 185.88Z"
        fill="url(#grad-fill)"
        stroke="#facc15"
        stroke-width="2"
        stroke-linecap="round"
        stroke-linejoin="round"
        filter="url(#shadow)"
        
        class="sig-path"
        stroke-dasharray="575"
        stroke-dashoffset="575"
        fill-opacity="0"
      >
        <animate
          attributeName="stroke-dashoffset"
          from="575"
          to="0"
          dur="1s"
          begin="5s"
          fill="freeze"
        />
      
        <animate
          attributeName="fill-opacity"
          from="0"
          to="1"
          dur="0.3s"
          begin="5.6s"
          fill="freeze"
        />
      </path>
    
      </g>
    </svg>